<svg width="64" height="64" viewBox="0 0 64 64" fill="#f06e8e" xmlns="http://www.w3.org/2000/svg">
<path d="M8.57454 26.1856C8.37634 25.106 9.58113 24.3241 10.4868 24.9446L18.6381 30.5289C19.0199 30.7903 19.5155 30.8166 19.9225 30.5964L28.6129 25.8944C29.5785 25.372 30.6946 26.2762 30.3843 27.3293L27.5917 36.8065C27.4609 37.2504 27.5893 37.7304 27.9244 38.0495L35.0824 44.8614C35.8775 45.6182 35.3628 46.9589 34.2657 46.9896L24.3882 47.2625C23.9256 47.2753 23.5091 47.5461 23.3092 47.9636L19.0421 56.8757C18.5679 57.8656 17.1344 57.7903 16.7664 56.7561L13.4539 47.4467C13.2987 47.0108 12.9126 46.6978 12.454 46.6367L2.66044 45.3329C1.57212 45.188 1.20022 43.8011 2.07028 43.1314L9.90047 37.1055C10.2672 36.8232 10.445 36.3591 10.3614 35.9039L8.57454 26.1856Z"/>
<path d="M53.6415 30.1624C54.499 29.6056 55.6457 29.85 56.2027 30.7073C56.7595 31.5648 56.5164 32.7116 55.6589 33.2685L41.1663 42.6801C40.3087 43.2369 39.162 42.9927 38.6051 42.1353C38.0486 41.2779 38.2918 40.131 39.1489 39.5741L53.6415 30.1624Z"/>
<path d="M59.0561 6.15981C59.9135 5.60306 61.0602 5.8467 61.6173 6.70368C62.1742 7.56115 61.9308 8.70789 61.0735 9.26489L36.229 25.3997C35.3715 25.9565 34.2247 25.7123 33.6678 24.8549C33.1113 23.9975 33.3545 22.8506 34.2117 22.2937L59.0561 6.15981Z"/>
</svg>
